<?xml version="1.0" encoding="utf-8"?>
<!-- Generator: Adobe Illustrator 15.0.0, SVG Export Plug-In . SVG Version: 6.00 Build 0)  -->
<!DOCTYPE svg PUBLIC "-//W3C//DTD SVG 1.1//EN" "http://www.w3.org/Graphics/SVG/1.1/DTD/svg11.dtd">
<svg version="1.1" id="Layer_1" xmlns="http://www.w3.org/2000/svg" xmlns:xlink="http://www.w3.org/1999/xlink" x="0px" y="0px"
	 viewBox="0 0 1080 1080" enable-background="new 0 0 1080 1080" xml:space="preserve">
<g id="SRD">
	<path d="M-166.395,315.875c-2.074,0-4.121-0.813-5.664-2.344c-2.563-2.563-3.082-6.523-1.273-9.656L-34.836,64l-138.496-239.871
		c-1.809-3.137-1.289-7.098,1.273-9.656c2.543-2.559,6.504-3.09,9.656-1.273L259.996,57.07c2.484,1.434,4,4.074,4,6.93
		s-1.516,5.5-4,6.93l-422.398,243.883C-163.652,315.516-165.027,315.875-166.395,315.875z"/>
	<path d="M204.793,376.844h-351.996c-3.625,0-6.793-2.438-7.73-5.93c-0.934-3.5,0.594-7.188,3.73-9L364.793,64l-515.996-297.914
		c-3.137-1.813-4.664-5.5-3.73-9c0.938-3.492,4.105-5.926,7.73-5.926h351.996c2.859,0,5.508,1.52,6.93,4L387.668,59.914
		c0.234,0.391,0.438,0.805,0.594,1.223c0,0,0,0,0,0.008c0,0,0,0,0.008,0c0.352,0.918,0.523,1.887,0.523,2.855l0,0l0,0
		c0,0.969-0.172,1.938-0.523,2.855c-0.008,0-0.008,0-0.008,0v0.008c-0.172,0.426-0.359,0.832-0.594,1.223L211.723,372.844
		C210.293,375.32,207.652,376.844,204.793,376.844z"/>
	<path d="M-252.805,315.875c-0.688,0-1.383-0.094-2.07-0.273c-3.496-0.938-5.93-4.117-5.93-7.727v-487.746
		c0-3.625,2.434-6.793,5.93-7.73c3.504-0.934,7.191,0.594,9,3.73L-105.074,60c1.422,2.48,1.422,5.52,0,8l-140.801,243.875
		C-247.332,314.391-250.004,315.875-252.805,315.875z"/>
</g>
</svg>
