<?xml version="1.0" encoding="utf-8"?>
<!-- Generator: Adobe Illustrator 15.0.0, SVG Export Plug-In . SVG Version: 6.00 Build 0)  -->
<!DOCTYPE svg PUBLIC "-//W3C//DTD SVG 1.1//EN" "http://www.w3.org/Graphics/SVG/1.1/DTD/svg11.dtd">
<svg version="1.1" xmlns="http://www.w3.org/2000/svg" xmlns:xlink="http://www.w3.org/1999/xlink" x="0px" y="0px" width="128px"
	 height="128px" viewBox="0 0 128 128" enable-background="new 0 0 128 128" xml:space="preserve">
<g id="GMS" display="none">
	
		<polygon display="inline" fill="#9F1D20" stroke="#9F1D20" stroke-width="2" stroke-linejoin="round" stroke-miterlimit="10" points="
		37.6,94.484 20,64 37.6,33.516 	"/>
	
		<polygon display="inline" fill="#9F1D20" stroke="#9F1D20" stroke-width="2" stroke-linejoin="round" stroke-miterlimit="10" points="
		42,102.105 64,64 42,25.895 86,25.895 108,64 86,102.105 	"/>
</g>
<g id="SRD">
	<path d="M35.201,95.484c-0.259,0-0.515-0.101-0.708-0.293c-0.32-0.32-0.385-0.815-0.159-1.207L51.646,64L34.334,34.016
		c-0.226-0.392-0.161-0.887,0.159-1.207c0.318-0.32,0.813-0.386,1.207-0.159l52.8,30.484C88.81,63.313,89,63.643,89,64
		s-0.19,0.688-0.5,0.866L35.7,95.351C35.544,95.44,35.372,95.484,35.201,95.484z"/>
	<path d="M81.6,103.105h-44c-0.453,0-0.849-0.304-0.966-0.741s0.074-0.898,0.466-1.125L101.6,64L37.1,26.761
		c-0.392-0.227-0.583-0.688-0.466-1.125s0.513-0.741,0.966-0.741h44c0.357,0,0.688,0.19,0.866,0.5l21.993,38.094
		c0.029,0.049,0.054,0.101,0.074,0.153c0,0,0,0,0,0.001c0,0,0,0,0.001,0c0.044,0.115,0.065,0.236,0.065,0.357l0,0l0,0
		c0,0.121-0.021,0.242-0.065,0.357c-0.001,0-0.001,0-0.001,0c0,0,0,0.001,0,0.001c-0.021,0.053-0.045,0.104-0.074,0.153
		l-21.993,38.094C82.287,102.915,81.957,103.105,81.6,103.105z"/>
	<path d="M24.4,95.484c-0.086,0-0.173-0.011-0.259-0.034c-0.437-0.117-0.741-0.514-0.741-0.966V33.516
		c0-0.453,0.304-0.849,0.741-0.966c0.438-0.117,0.899,0.074,1.125,0.466l17.6,30.484c0.178,0.31,0.178,0.69,0,1l-17.6,30.484
		C25.084,95.299,24.75,95.484,24.4,95.484z"/>
</g>
<g id="Open_Hex" display="none">
	
		<polygon display="inline" fill="#9F1D20" stroke="#9F1D20" stroke-width="2" stroke-linejoin="round" stroke-miterlimit="10" points="
		86,25.895 64,38.596 42,25.895 	"/>
	
		<polygon display="inline" fill="#9F1D20" stroke="#9F1D20" stroke-width="2" stroke-linejoin="round" stroke-miterlimit="10" points="
		108.001,64 86.001,51.298 86.001,25.895 	"/>
	
		<polygon display="inline" fill="#9F1D20" stroke="#9F1D20" stroke-width="2" stroke-linejoin="round" stroke-miterlimit="10" points="
		86.001,102.105 86.001,76.702 108.001,64 	"/>
	
		<polygon display="inline" fill="#9F1D20" stroke="#9F1D20" stroke-width="2" stroke-linejoin="round" stroke-miterlimit="10" points="
		42,102.106 64,89.404 86,102.106 	"/>
	
		<polygon display="inline" fill="#9F1D20" stroke="#9F1D20" stroke-width="2" stroke-linejoin="round" stroke-miterlimit="10" points="
		20,64.001 42,76.702 41.999,102.105 	"/>
	
		<polygon display="inline" fill="#9F1D20" stroke="#9F1D20" stroke-width="2" stroke-linejoin="round" stroke-miterlimit="10" points="
		41.999,25.895 42,51.298 20,64 	"/>
</g>
</svg>
