<?xml version="1.0" encoding="utf-8"?>
<!-- Generator: Adobe Illustrator 15.0.0, SVG Export Plug-In . SVG Version: 6.00 Build 0)  -->
<!DOCTYPE svg PUBLIC "-//W3C//DTD SVG 1.1//EN" "http://www.w3.org/Graphics/SVG/1.1/DTD/svg11.dtd">
<svg version="1.1" id="Content" xmlns="http://www.w3.org/2000/svg" xmlns:xlink="http://www.w3.org/1999/xlink" x="0px" y="0px"
	 width="1080px" height="1080px" viewBox="0.5 128.5 1080 1080" enable-background="new 0.5 128.5 1080 1080" xml:space="preserve">
<g>
	<path d="M256.77,978.725c-2.538,0-5.075-1.045-6.94-2.836c-3.21-3.284-3.806-8.06-1.643-11.941L418.784,668.5L248.187,373.053
		c-2.163-3.807-1.567-8.657,1.643-11.866c3.134-3.06,7.984-3.806,11.865-1.567l520.224,300.373c2.985,1.717,4.926,5.001,4.926,8.508
		c0,3.508-1.94,6.792-4.926,8.583L261.694,977.382C260.128,978.277,258.411,978.725,256.77,978.725z"/>
	<path d="M713.934,1053.799H280.425c-4.552,0-8.432-2.984-9.551-7.313c-1.12-4.329,0.746-8.807,4.626-11.046L910.948,668.5
		L275.5,301.635c-3.88-2.239-5.746-6.792-4.626-11.12c1.119-4.253,4.999-7.313,9.551-7.313h433.435c3.582,0,6.79,1.94,8.581,4.926
		L939.157,663.5c0.224,0.448,0.448,0.971,0.672,1.493l0,0l0,0c0.447,1.119,0.671,2.388,0.671,3.507l0,0l0,0
		c0,1.194-0.224,2.389-0.671,3.508l0,0l0,0c-0.224,0.598-0.448,1.045-0.672,1.493L722.44,1048.873
		C720.649,1051.859,717.441,1053.799,713.934,1053.799z"/>
	<path d="M150.352,978.725c-0.821,0-1.717-0.149-2.538-0.299c-4.328-1.193-7.313-5.074-7.313-9.552V368.127
		c0-4.403,2.985-8.283,7.313-9.478c4.329-1.119,8.881,0.746,11.045,4.627l173.433,300.298c1.791,3.061,1.791,6.792,0,9.852
		L158.858,973.8C157.067,976.934,153.858,978.725,150.352,978.725z"/>
</g>
</svg>
