<?xml version="1.0" encoding="utf-8"?>
<!-- Generator: Adobe Illustrator 15.0.0, SVG Export Plug-In . SVG Version: 6.00 Build 0)  -->
<!DOCTYPE svg PUBLIC "-//W3C//DTD SVG 1.1//EN" "http://www.w3.org/Graphics/SVG/1.1/DTD/svg11.dtd">
<svg version="1.1" id="Content" xmlns:x="&ns_extend;" xmlns:i="&ns_ai;" xmlns:graph="&ns_graphs;"
	 xmlns="http://www.w3.org/2000/svg" xmlns:xlink="http://www.w3.org/1999/xlink" x="0px" y="0px" viewBox="0 0 1080 1080"
	 style="enable-background:new 0 0 1080 1080;" xml:space="preserve">
<g id="SRD">
	<path d="M36.695,93.852c-0.246,0-0.489-0.096-0.671-0.277c-0.304-0.305-0.365-0.773-0.151-1.145L52.287,64L35.873,35.571
		c-0.214-0.372-0.153-0.841,0.151-1.145c0.301-0.303,0.771-0.366,1.145-0.151L87.23,63.178c0.294,0.17,0.474,0.483,0.474,0.821
		c0,0.339-0.18,0.652-0.474,0.822L37.168,93.726C37.02,93.809,36.857,93.852,36.695,93.852z"/>
	<path d="M80.688,101.078H38.969c-0.43,0-0.805-0.289-0.916-0.703c-0.111-0.415,0.07-0.852,0.442-1.066L99.65,64L38.495,28.691
		c-0.372-0.215-0.553-0.652-0.442-1.067c0.111-0.414,0.486-0.702,0.916-0.702h41.718c0.339,0,0.652,0.18,0.821,0.474l20.853,36.119
		c0.027,0.046,0.052,0.095,0.07,0.145c0,0,0,0,0,0.001c0,0,0,0,0.001,0c0.042,0.108,0.062,0.224,0.062,0.338l0,0l0,0
		c0,0.115-0.02,0.23-0.062,0.338c-0.001,0-0.001,0-0.001,0v0.001c-0.02,0.051-0.043,0.099-0.07,0.145l-20.853,36.12
		C81.34,100.896,81.026,101.078,80.688,101.078z"/>
	<path d="M26.454,93.852c-0.082,0-0.164-0.012-0.246-0.032c-0.414-0.111-0.703-0.487-0.703-0.916V35.097
		c0-0.43,0.289-0.805,0.703-0.917c0.416-0.11,0.853,0.071,1.067,0.442l16.688,28.903c0.168,0.294,0.168,0.654,0,0.948L27.275,93.377
		C27.102,93.676,26.786,93.852,26.454,93.852z"/>
</g>
</svg>
